Coordinates
version=1
nRows=10
nColumns=46
inDegrees=yes

Units are S.I. units (second, meters, Newtons, ...)
Angles are in degrees.

endheader
time	pelvis_tilt	pelvis_list	pelvis_rotation	pelvis_tx	pelvis_ty	pelvis_tz	bb_angle	bb_tx	bb_ty	bb_tz	hip_flexion_r	hip_adduction_r	hip_rotation_r	knee_angle_r	knee_angle_r_beta	ankle_angle_r	subtalar_angle_r	mtp_angle_r	crank_angle_r	hip_flexion_l	hip_adduction_l	hip_rotation_l	knee_angle_l	knee_angle_l_beta	ankle_angle_l	subtalar_angle_l	mtp_angle_l	crank_angle_l	lumbar_extension	lumbar_bending	lumbar_rotation	arm_flex_r	arm_add_r	arm_rot_r	elbow_flex_r	pro_sup_r	wrist_flex_r	wrist_dev_r	arm_flex_l	arm_add_l	arm_rot_l	elbow_flex_l	pro_sup_l	wrist_flex_l	wrist_dev_l
      2.50500000	    -22.32923680	     -0.04809834	     -6.87897613	      0.03130738	      1.00766767	     -0.21366299	      0.00000000	      0.50000000	      0.00000000	      0.25000000	     93.45187168	      2.52273881	      4.60361255	     90.53444330	      1.58012412	     25.71838888	    -12.80110175	      0.00000000	      0.00000000	     57.54653901	     -9.71728843	     -2.01289033	     55.54450569	      0.96943451	    -24.69192778	    -11.50253650	      0.00000000	      0.00000000	    -55.12399789	      3.19032069	      3.27330718	     89.53653244	     -7.65304645	     24.68791746	     71.21061503	     41.98642081	      0.00000000	      0.00000000	     88.79933736	    -29.93013932	     31.50073957	     71.04305805	     45.19600389	      0.00000000	      0.00000000
      2.51000000	    -22.60064289	     -0.02963184	     -6.56799015	      0.03178804	      1.00711720	     -0.21351877	      0.00000000	      0.50000000	      0.00000000	      0.25000000	     93.18835097	      2.18045397	      4.51761430	     89.28739610	      1.55835904	     25.54646405	    -12.65618165	      0.00000000	      0.00000000	     58.16565404	     -9.47906917	     -1.58464912	     56.85911247	      0.99237872	    -23.59435898	    -11.35183749	      0.00000000	      0.00000000	    -55.13734079	      3.45079499	      3.10476430	     89.52158863	     -7.74181787	     24.69648325	     72.22912325	     42.00725354	      0.00000000	      0.00000000	     88.68530523	    -30.53713483	     31.61406391	     72.22210869	     45.37984629	      0.00000000	      0.00000000
      2.51500000	    -22.77900275	      0.15597548	     -6.39762102	      0.03246219	      1.00695240	     -0.21320710	      0.00000000	      0.50000000	      0.00000000	      0.25000000	     92.81009132	      1.93424133	      4.54249889	     87.97869534	      1.53551791	     25.27876951	    -12.65827185	      0.00000000	      0.00000000	     58.55395888	     -9.24986926	     -1.46236421	     58.05104313	      1.01318184	    -22.51142774	    -11.50638683	      0.00000000	      0.00000000	    -55.23210026	      3.42720631	      2.70163894	     89.50838392	     -7.74583871	     24.79485015	     72.96441553	     42.01021669	      0.00000000	      0.00000000	     88.62606715	    -31.53951081	     32.09060416	     73.83005814	     45.60001528	      0.00000000	      0.00000000
      2.52000000	    -23.00937929	      0.29541422	     -6.16177891	      0.03304072	      1.00658935	     -0.21299323	      0.00000000	      0.50000000	      0.00000000	      0.25000000	     92.48616194	      1.62785955	      4.56588115	     86.68913537	      1.51301084	     25.03053872	    -12.45476665	      0.00000000	      0.00000000	     59.05098230	     -9.00184476	     -1.26460303	     59.29100289	      1.03482322	    -21.38810295	    -11.52171444	      0.00000000	      0.00000000	    -55.18327387	      3.51815462	      2.57675803	     89.49292453	     -7.93932605	     24.87234937	     73.54954052	     42.15754946	      0.00000000	      0.00000000	     88.57707074	    -31.64320282	     32.07074925	     74.33630253	     45.66156334	      0.00000000	      0.00000000
      2.52500000	    -23.22720857	      0.36848320	     -5.96156542	      0.03363728	      1.00638564	     -0.21285347	      0.00000000	      0.50000000	      0.00000000	      0.25000000	     92.08861423	      1.35692977	      4.49267614	     85.34008688	      1.48946550	     24.55789300	    -12.48486618	      0.00000000	      0.00000000	     59.52877208	     -8.81982645	     -1.07580819	     60.50667660	      1.05604073	    -20.44508599	    -11.92569955	      0.00000000	      0.00000000	    -55.20251925	      3.59444843	      2.55945464	     89.48021595	     -8.08847572	     24.61091325	     74.21287562	     42.54520429	      0.00000000	      0.00000000	     88.30509415	    -31.35597589	     31.05571834	     75.03686450	     45.71030626	      0.00000000	      0.00000000
      2.53000000	    -23.47150660	      0.59540363	     -5.68482730	      0.03420375	      1.00596989	     -0.21284334	      0.00000000	      0.50000000	      0.00000000	      0.25000000	     91.76602861	      0.97300586	      4.63817191	     84.04269677	      1.46682177	     24.20438652	    -12.12429520	      0.00000000	      0.00000000	     60.05876216	     -8.47444327	     -0.95945505	     61.75908229	      1.07789933	    -19.32111344	    -11.97629816	      0.00000000	      0.00000000	    -55.06716910	      3.65184994	      2.40148255	     89.46690990	     -8.44649854	     24.84366018	     74.66017081	     42.75738315	      0.00000000	      0.00000000	     88.32302535	    -31.53723486	     31.54736609	     75.28504545	     45.80897978	      0.00000000	      0.00000000
      2.53500000	    -23.68533945	      0.73899674	     -5.44511469	      0.03479579	      1.00566355	     -0.21266109	      0.00000000	      0.50000000	      0.00000000	      0.25000000	     91.37805295	      0.66208795	      4.70214676	     82.75215260	      1.44429753	     23.75318249	    -11.80693192	      0.00000000	      0.00000000	     60.58844594	     -8.26586081	     -0.81868176	     63.08203558	      1.10098922	    -17.86220035	    -11.57316825	      0.00000000	      0.00000000	    -55.00321830	      3.74054953	      2.31060618	     89.44058622	     -8.68779254	     24.82102007	     75.34224770	     42.88043818	      0.00000000	      0.00000000	     88.38022861	    -31.88767922	     32.18679669	     75.78505247	     45.93490117	      0.00000000	      0.00000000
      2.54000000	    -23.96004795	      0.91657031	     -5.17875754	      0.03550807	      1.00544007	     -0.21276214	      0.00000000	      0.50000000	      0.00000000	      0.25000000	     90.97141815	      0.25259143	      4.62793060	     81.29338360	      1.41883720	     23.35502332	    -11.84964526	      0.00000000	      0.00000000	     61.15861164	     -7.95497825	     -0.70715042	     64.33343481	      1.12283026	    -16.81961714	    -11.74067349	      0.00000000	      0.00000000	    -54.84453549	      3.86431829	      2.19140520	     89.41893228	     -8.86737691	     24.86495916	     75.78092228	     42.90081340	      0.00000000	      0.00000000	     88.25508636	    -31.89440941	     32.07776072	     76.12256220	     46.01658124	      0.00000000	      0.00000000
      2.54500000	    -24.20816779	      1.06276806	     -5.00596735	      0.03620463	      1.00530673	     -0.21266270	      0.00000000	      0.50000000	      0.00000000	      0.25000000	     90.50992425	     -0.01686882	      4.61450989	     79.84774971	      1.39360613	     22.79062800	    -11.76332107	      0.00000000	      0.00000000	     61.71350257	     -7.78413008	     -0.65174476	     65.61913762	      1.14527000	    -15.61594332	    -11.70020091	      0.00000000	      0.00000000	    -54.75014976	      3.93112052	      2.15879350	     89.39135994	     -8.95596715	     24.73115971	     76.31244349	     42.83956070	      0.00000000	      0.00000000	     88.18476555	    -32.00933866	     32.09739351	     76.49704375	     46.20082934	      0.00000000	      0.00000000
      2.55000000	    -24.42682575	      1.27923647	     -4.75202789	      0.03685575	      1.00518082	     -0.21279773	      0.00000000	      0.50000000	      0.00000000	      0.25000000	     90.01545005	     -0.38857498	      4.68804031	     78.40854189	      1.36848722	     22.24314596	    -11.59164542	      0.00000000	      0.00000000	     62.25700491	     -7.44365067	     -0.60341334	     66.89003629	      1.16745137	    -14.61545765	    -11.95095696	      0.00000000	      0.00000000	    -54.63645426	      4.01919098	      2.08356947	     89.36993993	     -9.23543874	     24.80118589	     76.76133579	     43.02458758	      0.00000000	      0.00000000	     88.05548498	    -31.77275039	     31.63686104	     76.61838301	     46.20235987	      0.00000000	      0.00000000
